Coordinates
version=1
nRows=13
nColumns=40
inDegrees=yes

Units are S.I. units (second, meters, Newtons, ...)
Angles are in degrees.

endheader
time	pelvis_tilt	pelvis_list	pelvis_rotation	pelvis_tx	pelvis_ty	pelvis_tz	hip_flexion_r	hip_adduction_r	hip_rotation_r	knee_angle_r	knee_angle_r_beta	ankle_angle_r	subtalar_angle_r	mtp_angle_r	hip_flexion_l	hip_adduction_l	hip_rotation_l	knee_angle_l	knee_angle_l_beta	ankle_angle_l	subtalar_angle_l	mtp_angle_l	lumbar_extension	lumbar_bending	lumbar_rotation	arm_flex_r	arm_add_r	arm_rot_r	elbow_flex_r	pro_sup_r	wrist_flex_r	wrist_dev_r	arm_flex_l	arm_add_l	arm_rot_l	elbow_flex_l	pro_sup_l	wrist_flex_l	wrist_dev_l
     22.22750000	     -6.57204363	     -5.10889776	     -5.22160144	      0.83179296	      0.93404802	      0.44867093	     32.06745284	     -4.53797742	     -9.08196908	     55.66397928	     55.66397928	      8.44900265	    -18.50507565	      9.14054073	     13.03400314	     -5.91176462	    -10.81973157	     17.28499118	     17.28499118	     12.34961900	     -8.69995925	     -4.48707566	     -9.90166860	      3.08909987	     -0.07297718	     -2.65016422	    -13.27649898	     -7.69035668	     25.86150730	     47.09590910	      0.00000000	      0.00000000	     20.23404323	    -14.68630815	    -10.28945842	     61.08271200	     47.15924949	      0.00000000	      0.00000000
     22.23985714	     -6.72631503	     -5.27965991	     -5.39394937	      0.83078707	      0.93370925	      0.44894155	     32.35265172	     -3.97978174	     -9.04230349	     52.95306580	     52.95306580	      8.23714510	    -18.09882954	      9.20898863	     12.78653960	     -6.07985855	    -10.75471385	     17.27375192	     17.27375192	     12.63058567	     -8.93984972	     -4.53183989	     -9.97094590	      3.40119045	      0.13887450	     -3.92319777	    -13.68621485	     -7.97243863	     24.97125554	     47.14260838	      0.00000000	      0.00000000	     21.06687923	    -14.54147799	    -10.38293337	     62.31418141	     47.19316261	      0.00000000	      0.00000000
     22.25221429	     -6.87683640	     -5.37450815	     -5.60905742	      0.82976936	      0.93322237	      0.44933889	     32.53926068	     -3.46308928	     -8.98673389	     49.97046466	     49.97046466	      7.96191209	    -17.52967489	      8.86530989	     12.58359159	     -6.18937837	    -10.72934802	     17.36580024	     17.36580024	     12.94485490	     -9.24391093	     -4.56720070	    -10.06215102	      3.60838965	      0.47492410	     -5.12449851	    -14.07704737	     -8.42189177	     23.95147866	     47.21069009	      0.00000000	      0.00000000	     21.70597892	    -14.36244684	    -10.35598898	     64.26301896	     47.22869434	      0.00000000	      0.00000000
     22.26457143	     -7.12439539	     -5.48838152	     -5.82250574	      0.82875023	      0.93261292	      0.44982091	     32.69516344	     -2.94079855	     -9.10900776	     46.71211816	     46.71211816	      7.78237289	    -16.68068376	      8.62782594	     12.47304736	     -6.33478742	    -10.69488988	     17.42425516	     17.42425516	     13.19903856	     -9.48675886	     -4.57398134	    -10.04132685	      3.86658785	      0.53504428	     -6.13964140	    -14.44257100	     -8.77080358	     23.23445005	     47.26158814	      0.00000000	      0.00000000	     22.13654044	    -14.40718923	    -10.32918270	     65.82689404	     47.25695551	      0.00000000	      0.00000000
     22.27692857	     -7.35961103	     -5.55475396	     -6.05007532	      0.82774549	      0.93193918	      0.45039496	     32.73999682	     -2.44059867	     -9.27682736	     43.23780864	     43.23780864	      7.57669286	    -15.59990607	      8.30984298	     12.38877937	     -6.44078795	    -10.71442788	     17.55921387	     17.55921387	     13.50387386	     -9.78239642	     -4.57292874	    -10.08706786	      4.06684399	      0.66990443	     -7.07542815	    -14.78816826	     -9.12963507	     22.61082687	     47.31112258	      0.00000000	      0.00000000	     22.45789552	    -14.38502908	    -10.25360375	     67.61158875	     47.28516984	      0.00000000	      0.00000000
     22.28928571	     -7.52773249	     -5.49076233	     -6.30463779	      0.82697017	      0.93120087	      0.45107943	     32.36801212	     -2.05397962	     -9.60323935	     39.01640276	     39.01640276	      5.14724742	    -15.10698805	      1.79439340	     12.30932166	     -6.44350414	    -10.84144212	     17.91293317	     17.91293317	     14.19981628	     -9.78282218	     -3.80960096	    -10.22977968	      4.05972798	     -0.06695023	     -6.78554933	    -14.75103046	    -13.06096552	     21.00192241	     47.71139924	      0.00000000	      0.00000000	     21.07216449	    -15.05597512	    -10.73701810	     72.77787544	     47.44678840	      0.00000000	      0.00000000
     22.30164286	     -7.77016639	     -5.50836111	     -6.56834888	      0.82623162	      0.93043575	      0.45190060	     32.19333181	     -1.53066659	     -9.93813581	     35.18880677	     35.18880677	      4.95640221	    -13.46301659	      2.11135302	     12.19874828	     -6.51684047	    -10.89428384	     18.03616632	     18.03616632	     14.48049869	    -10.04938817	     -3.86403210	    -10.19438932	      4.21598351	      0.13982936	     -7.65991067	    -15.09680269	    -13.32918236	     20.69810551	     47.73848008	      0.00000000	      0.00000000	     21.44775278	    -14.93063027	    -10.60700547	     73.84849786	     47.46350886	      0.00000000	      0.00000000
     22.31400000	     -8.12945816	     -5.33114957	     -6.91964447	      0.82551920	      0.92939304	      0.45294060	     32.14737542	     -1.10452726	    -10.15606852	     31.39717057	     31.39717057	      4.62711740	    -11.73832273	      2.53507545	     12.20112922	     -6.42099640	    -11.13418255	     18.12496797	     18.12496797	     14.69660891	    -10.29360646	     -3.89661429	     -9.99326609	      4.16328538	      0.26677741	     -8.35914417	    -15.25333564	    -13.49559846	     20.54943085	     47.75138750	      0.00000000	      0.00000000	     21.71442000	    -14.98602829	    -10.54006428	     74.78106516	     47.47984804	      0.00000000	      0.00000000
     22.32635714	     -8.24826901	     -5.39189226	     -7.13121660	      0.82530201	      0.92867863	      0.45399312	     31.54093580	     -0.55921785	    -10.92557772	     27.38992270	     27.38992270	      4.30310808	     -9.32865682	      2.82343030	     11.89965942	     -6.53292462	    -11.16746881	     18.21695307	     18.21695307	     15.08423409	    -10.45309861	     -3.89246054	    -10.09814142	      4.35614723	      0.46944505	     -9.20302585	    -15.58893213	    -13.80599332	     20.58375658	     47.76605164	      0.00000000	      0.00000000	     21.65240279	    -14.79529319	    -10.25518228	     76.39533613	     47.49394798	      0.00000000	      0.00000000
     22.33871429	     -8.37243132	     -5.18712740	     -7.40484234	      0.82528915	      0.92769920	      0.45518481	     31.03199717	     -0.28436205	    -11.78921129	     23.72073720	     23.72073720	      3.76949669	     -6.54022191	      2.56366308	     11.60123708	     -6.39435107	    -11.43476535	     18.34089651	     18.34089651	     15.69968876	    -10.30279591	     -3.47149785	    -10.21006425	      4.19958855	      0.28987166	    -10.00574144	    -15.63626895	    -15.02689974	     22.00523682	     47.76971196	      0.00000000	      0.00000000	     20.79299128	    -15.31031802	     -9.84626397	     79.49750934	     47.55079057	      0.00000000	      0.00000000
     22.35107143	     -8.55110663	     -5.05764101	     -7.67188803	      0.82552014	      0.92669155	      0.45665566	     30.52208588	      0.21821593	    -12.35655414	     20.23956300	     20.23956300	      3.23795335	     -4.33231201	      3.31856667	     11.25182844	     -6.32538071	    -11.63743875	     18.25957371	     18.25957371	     16.01275001	    -10.39035099	     -3.48539532	    -10.09107816	      4.20548565	      0.39631641	    -10.57126730	    -15.78778325	    -15.23262141	     22.02903671	     47.77216052	      0.00000000	      0.00000000	     20.68727351	    -15.14838082	     -9.72556905	     80.16526994	     47.56244343	      0.00000000	      0.00000000
     22.36342857	     -8.64060880	     -4.87359197	     -7.91931209	      0.82607711	      0.92565305	      0.45822078	     29.98139458	      0.60077917	    -13.06058325	     17.26239791	     17.26239791	      2.75204489	     -1.90028770	      4.20347293	     10.75328484	     -6.18037440	    -11.87157007	     18.12038228	     18.12038228	     16.38251700	    -10.39444734	     -3.50533660	    -10.02359318	      4.11253271	      0.44605226	    -11.04363324	    -15.83276532	    -15.45733124	     22.29209005	     47.76384269	      0.00000000	      0.00000000	     20.41348498	    -15.10682382	     -9.50667780	     80.97125664	     47.57057511	      0.00000000	      0.00000000
     22.37578571	     -8.71483661	     -4.59200253	     -8.14786274	      0.82692726	      0.92453578	      0.45983042	     29.57051761	      0.77479883	    -13.99902456	     15.01568470	     15.01568470	      2.66942571	      0.90615613	      5.58611570	     10.18609558	     -5.91835059	    -12.14864622	     17.89041537	     17.89041537	     16.79825454	    -10.22784994	     -3.41196284	     -9.95729451	      3.92464252	      0.38002915	    -11.52988308	    -15.77773984	    -15.89335588	     23.16471377	     47.72755585	      0.00000000	      0.00000000	     19.83222401	    -15.26223113	     -9.13665965	     82.11469499	     47.58780125	      0.00000000	      0.00000000
